<?xml version="1.0" standalone="no"?>
<!DOCTYPE svg PUBLIC "-//W3C//DTD SVG 20010904//EN"
 "http://www.w3.org/TR/2001/REC-SVG-20010904/DTD/svg10.dtd">
<svg version="1.0" xmlns="http://www.w3.org/2000/svg"
 width="466.000000pt" height="439.000000pt" viewBox="0 0 466.000000 439.000000"
 preserveAspectRatio="xMidYMid meet">

<g transform="translate(0.000000,439.000000) scale(0.100000,-0.100000)"
fill="#000000" stroke="none">
<path d="M1960 4188 c-184 -54 -526 -155 -760 -224 -490 -144 -454 -133 -447
-140 11 -12 670 -203 679 -198 6 4 204 63 441 133 l432 127 3 194 c1 106 -1
197 -5 201 -5 4 -159 -38 -343 -93z"/>
<path d="M2563 4185 c0 -8 4 -12 8 -9 4 2 11 -1 15 -7 4 -7 3 -9 -4 -5 -6 3
-13 2 -17 -4 -4 -6 -9 -8 -13 -6 -4 2 -7 -6 -7 -19 0 -13 3 -21 7 -19 4 2 10
-1 14 -7 4 -7 3 -9 -4 -5 -6 3 -13 2 -17 -4 -4 -6 -10 -8 -14 -6 -4 3 -7 -19
-7 -47 0 -31 -4 -51 -10 -50 -15 3 -11 -62 5 -81 12 -14 12 -17 1 -14 -9 2
-14 -6 -15 -19 0 -12 -3 -25 -7 -29 -4 -3 -6 3 -3 14 2 12 0 24 -4 26 -4 3 -7
-7 -6 -22 0 -15 5 -25 9 -24 5 2 12 0 15 -6 5 -8 243 -82 569 -178 50 -15 92
-31 92 -35 0 -5 -51 -24 -112 -43 -201 -62 -694 -206 -704 -206 -6 0 -19 -6
-30 -14 -18 -14 -18 -15 11 -27 17 -7 34 -13 39 -13 5 -1 10 -9 12 -18 1 -10
-1 -17 -4 -17 -21 3 -23 -4 -6 -23 l19 -23 -26 22 -25 23 0 -24 c0 -14 3 -23
7 -20 4 2 11 0 14 -6 4 -6 1 -9 -7 -8 -9 2 -13 -8 -12 -29 0 -18 -3 -30 -7
-27 -4 2 -6 13 -4 24 2 11 0 22 -4 24 -14 9 -6 -61 9 -80 8 -10 10 -15 3 -11
-6 4 -14 3 -18 -3 -4 -6 -9 -8 -13 -6 -4 2 -7 -6 -7 -19 0 -13 3 -21 7 -19 4
2 10 -1 14 -7 4 -7 3 -9 -4 -5 -6 3 -13 2 -17 -4 -4 -6 -10 -8 -13 -6 -4 2 -8
-15 -8 -39 0 -24 3 -42 7 -39 4 2 5 17 4 34 -3 36 8 46 26 24 10 -12 10 -15
-2 -12 -10 2 -14 -6 -13 -28 0 -30 -2 -31 -29 -27 -16 2 -173 46 -348 97 -175
51 -322 89 -326 85 -5 -3 -195 -61 -423 -129 -228 -67 -418 -125 -423 -129
-13 -12 664 -210 682 -200 19 11 824 250 861 256 14 2 219 -55 455 -126 377
-113 427 -130 405 -140 -14 -6 -203 -63 -420 -127 -217 -63 -408 -120 -425
-126 -23 -7 -44 -6 -87 5 -34 9 -60 11 -64 6 -3 -5 -11 -6 -17 -2 -7 4 -6 0 2
-10 15 -18 26 -23 16 -7 -10 16 1 12 15 -6 11 -12 11 -15 -1 -12 -8 2 -13 -3
-11 -11 3 -12 0 -12 -12 -2 -12 10 -14 9 -12 -2 1 -8 8 -22 16 -32 11 -14 11
-16 -1 -13 -10 2 -14 -6 -13 -29 0 -18 -3 -30 -7 -27 -4 2 -6 13 -4 24 2 11 0
22 -4 24 -4 3 -7 -9 -7 -27 1 -20 -4 -31 -12 -29 -17 3 -15 -3 5 -19 15 -12
16 -12 8 1 -8 13 -7 13 8 1 18 -14 22 -22 10 -20 -22 4 -24 -3 -7 -23 l19 -23
-26 22 -25 23 0 -24 c0 -14 3 -23 7 -20 4 2 11 0 14 -6 4 -6 1 -9 -7 -8 -9 2
-13 -8 -12 -29 0 -18 -3 -30 -7 -27 -4 2 -6 13 -4 24 2 11 0 22 -4 24 -9 6 -8
-55 2 -71 10 -17 -8 -12 -248 58 -116 33 -217 61 -225 61 -16 0 -862 -251
-869 -258 -2 -2 -2 -6 0 -8 2 -2 154 -49 337 -104 301 -90 336 -98 360 -87 15
7 215 68 445 136 l417 122 435 -128 c239 -71 431 -133 427 -137 -4 -4 -202
-65 -440 -135 l-432 -127 -2 -66 -1 -65 -6 65 -6 64 -130 38 c-181 52 -178 51
-169 36 6 -10 5 -10 -8 0 -14 11 -16 11 -14 -1 1 -8 8 -23 16 -33 10 -13 6
-11 -11 3 l-25 23 0 -24 c0 -14 3 -23 7 -20 4 2 11 -1 15 -7 4 -7 3 -9 -4 -5
-6 3 -13 2 -17 -4 -4 -6 -10 -8 -14 -6 -4 3 -7 -19 -7 -47 0 -30 -4 -51 -10
-50 -6 1 -10 -28 -9 -77 1 -43 -2 -77 -6 -74 -4 2 -6 13 -4 24 2 11 1 22 -3
24 -4 3 -8 -11 -8 -30 0 -29 5 -35 31 -44 116 -36 360 -110 367 -110 4 0 9 57
11 128 l3 127 2 -132 c1 -95 5 -133 14 -133 11 0 364 103 1243 364 l310 92 3
195 c2 149 -1 199 -10 206 -7 6 -202 66 -433 133 -231 67 -422 124 -424 126
-2 2 -2 6 1 9 2 3 195 61 428 130 232 68 424 126 426 127 5 6 8 398 2 403 -5
6 -346 107 -653 195 -223 63 -210 59 -199 70 6 6 178 60 384 120 206 61 396
118 423 126 l47 16 0 201 0 202 -393 115 c-469 137 -842 244 -878 253 -19 5
-26 3 -26 -8z m18 -52 c13 -16 12 -17 -3 -4 -17 13 -22 21 -14 21 2 0 10 -8
17 -17z m-21 -59 c11 -12 11 -15 -1 -12 -10 2 -14 -6 -13 -29 0 -18 -2 -30 -6
-28 -5 3 -6 71 -1 83 2 5 9 1 21 -14z m-20 -100 c11 -12 11 -15 -1 -12 -8 2
-13 -3 -11 -10 1 -8 -2 -11 -7 -8 -7 5 -8 23 -2 44 2 5 9 1 21 -14z m-199
-871 c13 -16 12 -17 -3 -4 -10 7 -18 15 -18 17 0 8 8 3 21 -13z m-381 -1619
c11 -12 11 -15 -1 -12 -10 2 -14 -6 -13 -29 0 -18 -2 -30 -6 -28 -5 3 -6 71
-1 83 2 5 9 1 21 -14z m-20 -100 c11 -12 11 -15 -1 -12 -8 2 -13 -3 -11 -10 1
-8 -2 -11 -7 -8 -7 5 -8 23 -2 44 2 5 9 1 21 -14z"/>
<path d="M2340 3327 c0 -2 6 -10 14 -16 11 -9 16 -9 22 1 4 7 4 10 -1 6 -4 -4
-14 -3 -22 3 -7 6 -13 9 -13 6z"/>
<path d="M174 701 c-59 -27 -84 -63 -84 -122 0 -67 38 -109 129 -144 107 -40
130 -84 57 -108 -36 -12 -72 -2 -102 28 -14 14 -27 25 -30 25 -12 0 -74 -46
-74 -56 0 -7 18 -28 39 -47 117 -105 311 -49 311 90 0 61 -29 97 -107 133
-111 50 -118 55 -121 78 -3 16 4 25 23 32 37 14 40 13 75 -17 l32 -27 44 24
c24 12 44 26 44 29 0 15 -67 71 -102 85 -49 21 -84 20 -134 -3z"/>
<path d="M1973 470 l-1 -240 54 0 54 0 0 38 c0 26 7 45 19 56 24 22 29 19 71
-43 l35 -51 63 0 c34 0 62 3 62 6 0 3 -29 44 -65 90 -36 46 -65 89 -65 95 0 6
28 41 62 78 l62 66 -69 3 -70 3 -52 -58 -52 -58 -1 128 0 127 -52 0 -53 0 -2
-240z"/>
<path d="M2680 470 l0 -240 126 0 c142 0 179 11 217 64 33 47 31 126 -4 162
l-27 26 20 35 c39 65 7 147 -69 179 -21 9 -72 14 -148 14 l-115 0 0 -240z
m230 125 c7 -8 10 -25 6 -39 -5 -20 -14 -26 -50 -31 -70 -11 -81 -6 -84 43
l-3 42 59 0 c41 0 64 -5 72 -15z m14 -181 c19 -19 20 -44 4 -67 -11 -14 -72
-22 -135 -18 -14 1 -19 82 -6 94 14 14 121 7 137 -9z"/>
<path d="M4200 470 l0 -240 50 0 50 0 0 38 c0 35 22 72 43 72 3 0 25 -25 47
-55 l41 -55 59 0 c33 0 60 3 60 6 0 3 -29 44 -65 90 -36 46 -65 89 -65 96 0 6
28 41 63 77 l62 66 -70 3 -70 3 -43 -50 c-24 -28 -48 -51 -53 -51 -5 0 -9 54
-9 120 l0 120 -50 0 -50 0 0 -240z"/>
<path d="M715 571 c-11 -5 -50 -6 -87 -3 l-68 5 0 -242 0 -241 50 0 50 0 0 76
0 77 33 -9 c63 -16 143 -11 174 12 48 36 68 81 68 154 0 72 -20 118 -66 152
-28 21 -122 33 -154 19z m93 -111 c30 -28 36 -62 18 -98 -39 -75 -156 -48
-156 37 0 71 86 109 138 61z"/>
<path d="M1164 560 c-57 -29 -84 -80 -84 -160 0 -120 73 -190 183 -175 29 3
82 6 120 5 l67 -1 0 171 0 171 -67 -1 c-38 -1 -93 2 -123 5 -44 5 -63 2 -96
-15z m161 -105 c52 -51 15 -135 -60 -135 -46 0 -85 36 -85 80 0 44 39 80 85
80 25 0 44 -8 60 -25z"/>
<path d="M1762 555 c-36 -30 -42 -31 -42 -5 0 17 -7 20 -50 20 l-50 0 0 -170
0 -170 50 0 50 0 0 96 c0 92 1 97 29 125 20 19 40 29 60 29 30 0 31 1 31 50 0
46 -2 50 -24 50 -14 0 -38 -11 -54 -25z"/>
<path d="M3261 558 c-58 -30 -84 -80 -84 -158 0 -118 72 -188 183 -175 30 3
85 6 123 5 l67 -1 0 171 0 171 -67 -1 c-38 -1 -93 2 -123 5 -46 5 -62 2 -99
-17z m160 -97 c18 -14 24 -29 24 -61 0 -52 -30 -80 -83 -80 -50 0 -82 32 -82
81 0 29 6 42 26 58 33 26 84 27 115 2z"/>
<path d="M3866 573 c-4 -4 -38 -6 -76 -5 l-70 3 0 -171 0 -170 50 0 50 0 0
113 c0 98 3 116 18 130 23 21 56 22 76 1 13 -12 16 -39 16 -130 l0 -114 50 0
50 0 0 131 c0 149 -13 188 -72 208 -35 12 -81 14 -92 4z"/>
</g>
</svg>
